<svg width="110" height="36" viewBox="0 0 110 36" fill="none" xmlns="http://www.w3.org/2000/svg">
<path d="M10.7037 27.5613C10.7037 32.1172 9.81158 36 5.0914 36C4.37507 35.9317 3.68111 35.7212 3.05306 35.3817C2.42501 35.0422 1.87643 34.5811 1.44177 34.0273C0.614833 32.7923 0.232858 31.3285 0.354994 29.8627C0.354994 28.1719 0.549645 26.5593 0.549645 24.8371C0.549645 23.5063 0.549646 22.1755 0.436102 20.8447C0.354999 19.0442 0.209013 17.2124 0.144131 15.412C0.144131 14.41 0.0305877 13.361 0.0305877 12.359C-0.0471361 10.2015 0.0233028 8.04142 0.241451 5.89293C0.443755 4.3884 0.998473 2.94812 1.86351 1.68139C1.49043 1.49351 0.809168 1.28998 0.809168 0.882919C0.809168 0.475855 1.71752 0.162724 2.30146 0.131411C3.08945 0.00827284 3.88934 -0.0284915 4.68588 0.0218173C9.00056 0.0218173 10.1522 2.3233 10.1522 7.28635C10.1522 7.64644 10.1522 8.00653 10.1522 8.36663C10.1631 8.65824 10.1095 8.94874 9.99477 9.21873C9.88008 9.48872 9.70703 9.73198 9.48717 9.93226C9.37213 10.0264 9.23125 10.0862 9.08166 10.1045C9.06397 10.1128 9.04456 10.1171 9.02489 10.1171C9.00522 10.1171 8.9858 10.1128 8.96811 10.1045C8.87165 10.074 8.78578 10.0184 8.71995 9.94379C8.65413 9.86921 8.6109 9.77853 8.59505 9.68176C8.46494 9.04651 8.38361 8.40285 8.35174 7.75603C8.35174 3.65408 7.91378 1.75967 5.30227 1.75967C4.3777 1.75967 3.68021 2.3233 2.8854 3.84196C2.70689 4.15807 2.57063 4.49476 2.47989 4.84396C1.65264 6.75403 1.87973 8.47623 1.87973 11.4509C1.87186 12.0801 1.9207 12.7087 2.02571 13.3297C2.02571 14.0029 2.02571 14.7231 2.13925 15.4433C2.13925 16.915 2.22036 18.3867 2.28525 19.8584C2.28525 21.6901 2.51233 23.4593 2.51233 25.2128C2.51845 25.8419 2.46961 26.4704 2.36634 27.0916C2.25271 28.2005 2.25271 29.3175 2.36634 30.4264C2.36634 31.992 3.59911 34.2308 5.18873 34.2308C7.60559 34.2308 8.83836 32.2268 8.83836 29.6435V27.5926C8.83836 25.5729 8.69237 23.6002 8.54639 21.6588C8.43284 20.0932 8.35174 18.5276 8.35174 17.0559C8.35174 16.2417 8.35174 15.1928 9.17899 14.7544C9.31646 14.6936 9.46572 14.6616 9.61694 14.6605C9.74924 14.6642 9.87801 14.7026 9.98944 14.7716C10.1009 14.8405 10.1908 14.9374 10.2495 15.0519C10.3568 15.25 10.4124 15.4703 10.4117 15.6938C10.4117 16.0539 10.2982 16.4453 10.2982 16.8837C10.2982 18.324 10.2982 19.7644 10.4442 21.1578C10.5577 23.3184 10.7686 25.4007 10.7686 27.5613H10.7037Z" fill="#11827E"/>
<path d="M25.388 27.901C25.388 30.4133 25.388 33.9868 22.708 35.4224C22.0152 35.8017 21.2314 36.0007 20.4341 35.9998C19.4854 36.0088 18.5527 35.7658 17.7387 35.2977C16.9247 34.8296 16.2612 34.1545 15.8213 33.347C15.3069 32.222 15.0573 31.0018 15.0904 29.7735C15.0904 28.2131 15.3827 26.5122 15.3827 24.8893C15.3827 24.2183 15.3827 23.5005 15.3827 22.8139C15.3827 21.8464 15.269 20.9257 15.1878 19.9895C15.1878 18.429 15.1878 16.8686 15.0741 15.3081C15.0741 13.2327 14.7818 11.5786 14.7818 9.50319C14.7824 8.14938 14.8964 6.79782 15.1229 5.4616C15.2759 4.14937 15.755 2.89169 16.5197 1.79453C16.0593 1.81441 15.5997 1.73994 15.1716 1.57607C15.036 1.51973 14.919 1.42893 14.8331 1.31345C14.7473 1.19796 14.6958 1.06216 14.6843 0.92067C14.6947 0.82713 14.7281 0.737308 14.7818 0.658622C14.8354 0.579935 14.9078 0.514647 14.9929 0.468142C15.6386 0.13106 16.3715 -0.0206089 17.1044 0.0312099C17.8191 0.0312099 18.5337 0.109232 18.9723 0.109232H19.0697C19.0697 -4.76679e-07 19.2971 0 19.492 0C19.7933 0.00182178 20.0932 0.0384961 20.3853 0.109232C20.564 0.109232 20.8239 0.249673 21.0188 0.249673C21.1463 0.322591 21.2827 0.380237 21.4248 0.421324C22.4346 1.06124 23.1945 2.00536 23.5851 3.10531C23.8634 3.80591 24.086 4.52579 24.251 5.25875C24.251 5.47721 24.251 5.58644 24.4784 5.72688C24.5997 5.80004 24.7139 5.88361 24.8195 5.97656C24.9372 6.1867 24.988 6.42547 24.9657 6.66316C24.9657 7.02206 24.9657 7.38097 24.9657 7.77108C24.9657 8.1612 24.9657 8.73857 24.9657 9.23791V10.7984C24.9657 16.6345 25.4529 22.0493 25.4529 27.9634L25.388 27.901ZM23.5201 27.901C23.5201 20.957 23.1465 14.5435 23.1465 7.61504C23.1517 7.2892 23.1135 6.96407 23.0328 6.64755C22.8348 6.05562 22.596 5.47698 22.3182 4.91544C21.8918 3.63696 21.1047 2.49717 20.0443 1.62288C19.7519 1.31079 18.9235 1.87255 18.6961 2.09101C18.1762 2.68051 17.7543 3.34375 17.4455 4.05719C16.7932 5.5356 16.4882 7.13399 16.5522 8.73857C16.5522 10.9856 16.7471 12.7801 16.8608 14.9804C16.8608 16.5408 16.8608 18.1949 16.9745 19.8022C17.0882 21.4095 17.1531 22.9231 17.2668 24.4836C17.3805 26.044 17.007 27.1988 17.007 28.5252V28.8529C17.0619 30.3207 17.5094 31.7502 18.3063 33.0037C18.5422 33.3223 18.854 33.582 19.2157 33.7612C19.5774 33.9403 19.9784 34.0337 20.3853 34.0336C20.5473 34.0497 20.7106 34.0497 20.8726 34.0336C21.7659 33.8932 22.4968 32.598 22.773 31.927C23.3357 30.6565 23.5912 29.28 23.5201 27.901Z" fill="#11827E"/>
<path d="M41.0867 32.0279V33.7414C41.0867 33.9283 41.0867 34.0996 41.0867 34.2866C41.0705 34.3792 41.0705 34.4742 41.0867 34.5669C41.1013 34.6754 41.1013 34.7855 41.0867 34.894C41.0831 35.1809 40.975 35.4554 40.7844 35.6611C40.5938 35.8668 40.3353 35.9881 40.0621 36C39.7476 35.9679 39.4511 35.8315 39.2157 35.6106C38.7702 35.1744 38.7999 34.3177 38.6365 33.7414C38.191 32.2771 37.8792 30.735 37.4783 29.2708C37.0773 27.8066 36.6615 26.1555 36.32 24.5978C35.9785 23.0401 35.5627 21.8095 35.2954 20.2363C35.1617 19.5198 35.0875 18.7721 34.9241 18.0867C34.755 17.4545 34.4999 16.8512 34.1668 16.2953C33.8995 15.9059 33.9738 15.2984 33.8995 14.8311C33.8444 14.1334 33.7402 13.441 33.5877 12.7594C33.4243 12.074 33.1125 11.3887 32.9343 10.7188C32.6373 9.56616 32.5334 8.78733 32.3997 8.03964C32.2456 7.46891 32.0622 6.90733 31.8503 6.35735C31.7463 5.95235 31.7463 5.42274 31.4345 5.14236C31.4345 7.32311 31.4345 9.50386 31.4345 11.6846C31.4345 12.7906 31.5384 14.2548 31.5681 15.3607C31.6721 18.6163 31.776 21.5915 31.8057 24.8003C31.8057 26.981 31.8057 29.0839 31.8057 31.2647C31.8057 32.3395 31.8057 33.4454 31.8057 34.5981C31.8057 35.1589 31.8057 35.9533 30.9593 35.9533C30.7578 35.9273 30.5687 35.8372 30.4174 35.6952C30.2661 35.5532 30.1598 35.366 30.1129 35.1589C30.0067 34.7637 29.9567 34.3543 29.9644 33.9439C29.9644 33.3052 30.0386 32.6354 30.0386 32.0591C30.0386 30.4079 30.0386 28.7724 30.0386 27.1212C30.0386 25.4701 30.0386 23.8034 30.0386 22.1522C30.0386 20.5011 30.0386 18.4294 30.0386 16.4044C30.0386 15.1115 30.0386 13.8654 30.0386 12.6036C30.0386 11.046 29.8307 9.34809 29.7565 7.74368C29.6822 6.13927 29.7565 4.53486 29.6526 2.91487C29.6526 2.30738 29.415 2.30738 28.9398 2.19834C28.7778 2.1527 28.6353 2.05087 28.5355 1.90945C28.4358 1.76802 28.3846 1.59533 28.3903 1.4195C28.3946 1.2613 28.4466 1.10858 28.5388 0.983347C28.6484 0.854584 28.7838 0.752881 28.9352 0.685548C29.0867 0.618214 29.2506 0.586924 29.415 0.593927C29.4968 0.60451 29.58 0.594493 29.6574 0.564698C29.7349 0.534902 29.8045 0.48619 29.8604 0.422587C29.9349 0.305873 30.037 0.211479 30.1568 0.148669C30.2766 0.0858589 30.4098 0.0567867 30.5435 0.0643151C30.6445 0.0586096 30.7455 0.075058 30.8401 0.112606C30.9347 0.150155 31.0209 0.207984 31.093 0.282395C31.3603 0.593931 31.7018 0.593931 31.88 1.03008C32.0582 1.46623 32.2067 2.16719 32.3552 2.74353C32.4672 3.31266 32.611 3.8744 32.7858 4.42583C33.044 5.01834 33.2672 5.62699 33.454 6.24831C33.4842 6.70359 33.5844 7.15073 33.751 7.57233C34.0288 8.12177 34.2146 8.71714 34.3005 9.33251C34.6123 10.5787 35.0132 11.8248 35.3548 13.1177C35.9785 15.5788 36.3794 18.0867 37.0625 20.5478C37.515 22.2894 37.8671 24.0579 38.1168 25.8439C38.2207 26.4514 38.9038 28.9593 39.0672 29.6291C39.2098 30.2289 39.3934 30.8171 39.6166 31.3893C39.6166 28.6322 39.6166 24.3797 39.3493 19.7378C39.3493 19.1926 39.3493 18.6163 39.3493 18.0867C39.3493 16.8405 39.1414 15.5788 39.1414 14.3327C39.1266 14.0369 39.1266 13.7406 39.1414 13.4448C39.1414 12.8373 39.2157 12.261 39.2157 11.6535C39.2157 10.6565 39.2157 9.69078 39.2157 8.67829C39.2157 7.04273 39.2157 5.46947 39.082 3.86506C39.082 3.00833 38.9038 2.10488 38.9038 1.27931C38.8976 0.867495 39.0471 0.469844 39.3196 0.173352C39.3776 0.112576 39.4474 0.0657693 39.5244 0.0361794C39.6013 0.00658948 39.6834 -0.005069 39.7651 0.00201244C40.0758 0.0131826 40.3695 0.153243 40.5818 0.391432C40.6737 0.510507 40.7421 0.647597 40.7828 0.794698C40.8236 0.941798 40.8361 1.09596 40.8194 1.24816C40.8438 1.59557 40.8438 1.94439 40.8194 2.2918C40.8194 3.70929 40.6561 5.14235 40.6561 6.57542C40.6561 8.00848 40.6561 9.03656 40.6561 10.2515C40.6561 11.4665 40.6561 12.479 40.8343 13.585C40.85 13.8807 40.85 14.1771 40.8343 14.4729C40.8343 15.5165 40.5967 16.5134 40.5967 17.6973C40.5967 18.5228 40.5967 19.2549 40.7006 20.1895C40.7945 21.225 40.8391 22.2648 40.8343 23.3049C40.8343 23.6632 40.8343 24.0526 40.8343 24.4109C40.8343 24.7691 40.8343 24.738 40.8343 24.9093C40.8343 25.0807 40.8343 25.1897 40.8343 25.3766C40.8343 25.5635 40.9382 25.8439 40.9382 26.0932V26.2022C40.9147 26.6744 40.9147 27.1475 40.9382 27.6197C40.9382 29.6602 41.1164 32.0902 41.1164 31.95L41.0867 32.0279Z" fill="#11827E"/>
<path d="M55.1591 17.3732C55.1706 18.9416 55.0791 20.5089 54.8851 22.0647C54.7564 23.306 54.6954 24.5539 54.7025 25.8022V26.8813C54.7025 29.8526 54.8547 33.3712 53.1806 35.2791C52.9538 35.5177 52.6809 35.705 52.3795 35.8289C52.0781 35.9528 51.7548 36.0105 51.4304 35.9984C50.9555 35.9957 50.4855 35.9002 50.0454 35.7169C49.4747 35.5005 48.9518 35.169 48.5075 34.742C48.0632 34.315 47.7064 33.8011 47.4581 33.2304C46.9204 31.9983 46.6206 30.6705 46.5754 29.3209C46.4384 27.757 46.3015 26.1932 46.3015 24.6294C46.3015 23.0655 46.4689 21.9708 46.4689 20.6416C46.4689 20.1099 46.4689 19.5625 46.4689 19.0778C46.4542 18.4469 46.5155 17.8165 46.6515 17.2012C46.1188 17.2012 45.3883 16.9979 45.3883 16.341C45.3883 15.9814 45.7383 15.6999 46.0884 15.5904C46.5262 15.4419 46.9822 15.3577 47.4429 15.3402C47.6648 15.3165 47.8886 15.3584 48.0881 15.4609C48.2876 15.5634 48.4545 15.7222 48.5691 15.9188C48.5981 16.0369 48.5981 16.1604 48.5691 16.2785C48.5691 16.6382 48.3256 16.9509 48.3256 17.3888C48.3256 18.1707 48.4017 18.9526 48.4017 19.7971C48.4017 20.6416 48.4017 21.2671 48.4017 22.0178C48.4017 22.4869 48.4017 22.9091 48.4017 23.3783V25.9586C48.4017 26.678 48.4017 27.5225 48.4017 28.2575C48.3667 29.6575 48.6047 31.0506 49.1018 32.3547C49.3054 32.8601 49.5997 33.3216 49.9693 33.7152C50.3422 34.0488 50.803 34.2611 51.2934 34.3251C51.75 34.3251 52.1457 33.6058 52.2826 33.2461C52.94 31.0674 53.1423 28.7706 52.8762 26.506C52.8534 26.0736 52.8534 25.6403 52.8762 25.208C52.8762 22.7684 53.4393 20.5165 53.4393 18.1395C53.4393 15.1994 52.0391 13.8702 50.0606 13.8702C49.5513 13.8647 49.0423 13.9013 48.5387 13.9797C48.2366 14.0343 47.9317 14.0708 47.6255 14.0891C47.503 14.1011 47.3793 14.0879 47.2617 14.0504C47.1441 14.0128 47.035 13.9515 46.9407 13.8702C46.553 13.432 46.2944 12.8897 46.1949 12.3063C46.0976 11.7912 46.0517 11.2672 46.058 10.7425C46.058 9.94496 46.3015 8.66262 46.3015 7.30209C46.3167 7.0469 46.3167 6.791 46.3015 6.53581C46.1835 6.06887 46.1021 5.59299 46.058 5.11272C45.9611 4.42706 46.0102 3.72797 46.2021 3.06375C46.3939 2.39954 46.7238 1.78605 47.169 1.26569C48.1544 0.467862 49.3692 0.0279213 50.6237 0.0146161C51.1733 -0.0410154 51.7271 0.0628505 52.2221 0.314409C52.7171 0.565967 53.1335 0.95514 53.4241 1.43771C53.7128 2.25342 53.8421 3.11963 53.8046 3.98675C53.8046 4.56537 53.8046 5.17527 53.8046 5.72261C53.8046 6.26995 53.8046 7.19262 53.8046 7.91198C53.8607 8.3164 53.8963 8.72355 53.9111 9.13177C53.9337 9.41999 53.8584 9.70734 53.698 9.94496C53.5961 10.074 53.4689 10.1797 53.3247 10.2551C53.1805 10.3306 53.0225 10.3741 52.861 10.3828C52.7961 10.3873 52.7312 10.377 52.6706 10.3527C52.6101 10.3283 52.5556 10.2906 52.5109 10.2421C52.2633 9.88626 52.1303 9.45974 52.1304 9.0223C52.0665 8.38859 52.0411 7.75139 52.0543 7.11442V4.17442C52.0543 3.81474 52.0543 3.40814 52.0543 3.04846C52.052 2.76069 51.9494 2.4833 51.7652 2.26654C51.5324 2.10216 51.2562 2.01485 50.9738 2.01632H50.8216C50.4054 1.96316 49.9829 2.02498 49.5977 2.19541C49.2125 2.36583 48.8784 2.6387 48.63 2.9859C48.2628 3.91203 48.0517 4.89568 48.006 5.89463C47.9013 6.75025 47.8657 7.61331 47.8995 8.47496C47.8215 9.56212 47.914 10.6551 48.1734 11.7121C48.2313 11.9123 48.2771 12.116 48.3104 12.322H49.0105C49.4059 12.2989 49.8022 12.2989 50.1976 12.322C50.8644 12.2595 51.5363 12.3485 52.1659 12.5826C52.7955 12.8167 53.3672 13.1903 53.8407 13.6767C54.3141 14.1632 54.6776 14.7507 54.9054 15.3976C55.1333 16.0445 55.2199 16.735 55.1591 17.4201V17.3732Z" fill="#11827E"/>
<path d="M66.7059 34.024C65.8935 34.024 65.0811 33.916 64.1712 33.916C63.0517 33.9172 61.9335 33.9894 60.8241 34.1321C60.8559 33.6179 60.8559 33.1025 60.8241 32.5883C60.8241 31.8782 60.8241 31.1681 60.8241 30.458C60.8241 29.3002 60.8241 28.1269 60.8241 26.9537C60.8241 25.0394 60.8241 23.5575 60.8241 21.6124V20.1304C60.8241 19.4974 60.8241 18.8491 60.8241 18.247C60.8241 18.0463 60.5966 17.2899 60.8241 17.1509C61.0516 17.012 60.9378 17.1509 61.0028 17.1509H61.4578H62.2377H64.1712C64.8861 17.1509 65.9585 17.1509 66.1535 16.5489C66.4947 15.669 65.1461 15.5918 64.5287 15.5918C63.9112 15.5918 63.7812 15.4837 63.3588 15.4837H62.2864H61.019C60.7916 15.4837 60.6453 15.4837 60.6453 15.4837C60.6297 15.3194 60.6297 15.154 60.6453 14.9897V6.05146C60.6453 5.09434 60.6453 4.18353 60.6453 3.25729C60.6453 3.08748 60.6453 2.82504 60.6453 2.65523C60.6453 2.48542 60.6453 2.22298 61.019 2.19211H61.344C61.7089 2.20677 62.0725 2.24285 62.4326 2.30017H64.5937C65.4873 2.30017 66.3809 2.30017 67.2746 2.19211C67.6808 2.19211 68.477 2.05318 68.7369 1.72899C68.8343 1.62199 68.8864 1.48447 68.8832 1.34306C68.8832 1.06518 68.5907 0.81818 68.2495 0.710119C67.4495 0.478485 66.6159 0.369061 65.7798 0.385935C65.0486 0.385935 64.3012 0.463127 63.6188 0.463127H61.019C60.7856 0.482698 60.5508 0.445511 60.3366 0.355065C60.1579 0.169817 60.0117 0 59.7517 0C59.4917 0 59.183 0.385934 58.858 0.493996C58.5331 0.602058 58.1756 0.494002 57.8507 0.632939C57.6691 0.677966 57.505 0.771833 57.3782 0.903275C57.2514 1.03472 57.1672 1.19814 57.1357 1.37393C57.1377 1.4619 57.1589 1.54853 57.1981 1.62827C57.2373 1.70801 57.2935 1.77912 57.3632 1.83705C57.476 1.94394 57.6105 2.02783 57.7586 2.08357C57.9067 2.13932 58.0652 2.16575 58.2244 2.16124C58.5168 2.16124 58.5168 2.46999 58.5493 2.73243C58.5493 3.36536 58.5493 4.02916 58.5493 4.67753C58.6956 7.90394 58.923 11.1149 59.0043 14.3413C59.0043 15.4374 59.0043 16.5798 59.0043 17.6758C59.0043 21.6432 58.8256 25.1938 58.8256 29.1921C58.8256 30.5043 58.8256 31.8473 58.8256 33.1595C58.8559 33.4779 58.8559 33.7982 58.8256 34.1166C58.8256 34.3328 58.1431 34.3328 57.9969 34.3945C57.8844 34.4382 57.7886 34.5131 57.7218 34.6096C57.6551 34.706 57.6207 34.8194 57.6232 34.9348C57.6229 35.0322 57.6429 35.1287 57.6819 35.2188C57.721 35.3088 57.7783 35.3907 57.8507 35.4597C58.3381 35.8456 59.1505 35.6449 59.7192 35.8919C59.8329 35.9557 59.9611 35.9928 60.0929 36C60.2436 35.9974 60.3881 35.9425 60.4991 35.8456C60.7843 35.7449 61.0914 35.7131 61.3928 35.753C62.4001 35.6758 63.44 35.5986 64.4474 35.5986C65.0718 35.6029 65.6956 35.639 66.316 35.7067C66.7225 35.787 67.1357 35.8335 67.5508 35.8456C68.1033 35.8456 68.7044 35.6758 68.7369 35.1355C68.7412 34.9003 68.6478 34.6729 68.477 34.5026C68.0053 34.1762 67.4356 34.003 66.8521 34.0086L66.7059 34.024Z" fill="#11827E"/>
<path d="M82.5565 23.8189C82.5565 25.5268 82.5565 27.2809 82.4757 29.0196C82.4757 29.6813 82.5889 30.3891 82.5565 31.0661C82.5242 31.7431 82.4434 32.4817 82.3626 33.1895C82.3943 33.5068 82.3943 33.8262 82.3626 34.1435C82.3626 34.482 82.5889 34.5897 82.5889 34.9436C82.5889 35.2975 81.8779 35.836 81.3608 35.9437C81.1022 36.1438 80.5044 35.7591 80.3589 35.5899C80.2096 35.3929 80.1304 35.1557 80.1327 34.9128C80.1675 34.5089 80.2323 34.1078 80.3266 33.7127C80.472 32.174 80.7306 30.6353 80.7306 29.0966C80.7306 27.5579 80.6498 26.0192 80.5852 24.4805C80.5852 23.6958 80.472 22.9418 80.3589 22.2494C80.1718 21.4581 80.0369 20.6564 79.955 19.8491V18.7258C79.9791 18.343 79.9409 17.9589 79.8418 17.5872C79.6479 16.9563 79.0662 16.8486 78.4683 16.7102C77.9359 16.6014 77.3958 16.5294 76.8524 16.4947C76.4808 16.4947 76.1091 16.4947 75.7375 16.4947H75.2204C74.9295 16.4947 74.7033 16.4947 74.7033 16.7409C74.8487 18.2796 74.9295 20.1722 74.9295 21.757C74.9295 24.9729 74.9295 28.1888 75.0265 31.4046V33.9742C75.0669 34.4378 74.9659 34.9026 74.7356 35.3129C74.7356 35.5283 74.2993 35.636 73.9923 35.636C73.9178 35.6519 73.8406 35.6519 73.7661 35.636C73.5654 35.5637 73.3905 35.4384 73.2617 35.275C73.1329 35.1115 73.0557 34.9165 73.0389 34.7128C72.9977 34.4218 72.9977 34.1268 73.0389 33.8357V32.9433C73.0389 32.097 73.0389 31.2815 73.0389 30.4352C73.0389 28.8966 73.0389 27.1578 73.0389 25.5268C73.0389 22.2802 73.1843 19.0028 73.2328 15.7562V14.2175C73.2514 13.1905 73.2136 12.1633 73.1197 11.1401C72.9743 9.60143 72.7804 7.95502 72.7481 6.37018C72.7157 4.78533 72.3926 3.76979 72.3926 2.56962C72.3926 2.24649 72.0371 2.27728 71.5038 2.27728C71.2938 2.27728 70.8413 2.13879 70.8413 1.47715C70.8492 1.37582 70.8766 1.27674 70.9221 1.18481C71.213 0.630883 71.924 0.630882 72.3603 0.630882C72.3603 0.630882 72.4734 0.630882 72.5057 0.630882C72.538 0.630882 72.8773 0.276984 73.1036 0.138502C73.224 0.0610235 73.3629 0.0134159 73.5075 1.43486e-05C73.6573 -0.000913862 73.8035 0.043214 73.9254 0.126106C74.0473 0.208997 74.1386 0.326424 74.1862 0.461625C74.2334 0.629471 74.2928 0.793992 74.364 0.954004C74.364 1.06171 74.9942 1.12326 75.1881 1.23097C75.8779 1.51081 76.5247 1.8783 77.111 2.32343C77.7089 2.8312 78.3391 3.27742 78.9208 3.78518C80.1302 4.7294 81.0974 5.92402 81.7486 7.27801C81.9954 7.94453 82.1105 8.64881 82.0879 9.35523C82.0974 10.1136 81.9717 10.868 81.7163 11.5863C81.4462 12.3441 81.0236 13.0444 80.472 13.6482C79.7176 14.3117 78.8691 14.8711 77.9512 15.31C78.2744 15.31 78.5814 15.31 79.244 15.4484C79.6356 15.4937 80.0205 15.5814 80.3912 15.71C80.8076 15.9693 81.1555 16.3167 81.4077 16.7251C81.66 17.1334 81.8098 17.5917 81.8455 18.0642C81.9425 19.0951 81.8456 20.0799 82.1041 21.1416C82.319 22.0318 82.4541 22.9377 82.5081 23.8497L82.5565 23.8189ZM79.6964 10.9709C79.8529 10.4447 79.9397 9.90192 79.955 9.35523C79.9502 8.95967 79.8904 8.56644 79.7772 8.18583C79.5083 7.48109 79.1327 6.81757 78.6622 6.21631C78.0948 5.55807 77.4496 4.96431 76.7393 4.44682C76.4 4.16985 75.996 3.95445 75.6244 3.70826C75.262 3.44401 74.8784 3.20735 74.4771 3.00046C74.4771 4.63147 74.574 6.27786 74.574 7.9858C74.574 8.37047 74.574 8.78592 74.574 9.21676C74.574 10.2477 74.4609 11.2632 74.574 12.2941C74.574 12.6173 74.574 12.925 74.574 13.2789V13.6636C74.574 13.9559 74.574 14.2021 74.574 14.4175C74.5722 14.6414 74.6049 14.8643 74.671 15.0792C75.2365 14.8637 75.8667 14.8637 76.4161 14.6175C76.7046 14.5575 76.9752 14.4366 77.2079 14.2636C77.418 14.0944 77.8705 13.7097 78.129 13.5251C78.916 12.8468 79.4776 11.9644 79.7449 10.9862L79.6964 10.9709Z" fill="#11827E"/>
<path d="M90.7522 29.0957C90.7522 28.6565 90.9372 28.2643 90.968 27.8721C90.968 27.2289 91.1376 24.9856 91.2147 24.3425C91.4305 23.0404 91.3843 19.8716 91.5693 18.5853C91.9239 15.9812 92.2014 13.3614 92.4481 10.7417C92.6947 8.12189 92.8489 5.73742 93.0956 3.21178C93.0622 2.24057 93.2303 1.2731 93.5889 0.372398C93.676 0.249821 93.7927 0.152197 93.9277 0.0889868C94.0628 0.0257761 94.2116 -0.000885306 94.3597 0.0115872C94.4671 -0.00386239 94.5761 -0.00386239 94.6835 0.0115872C94.8811 0.0776495 95.0465 0.217906 95.146 0.403768C95.2289 0.599149 95.2859 0.804886 95.3156 1.01557C95.3156 1.78424 95.2077 2.58429 95.146 3.36865C95.0843 4.15301 95.0072 5.04719 94.9301 5.87862C94.7914 7.44734 94.4985 9.01606 94.221 10.5848C93.9435 12.1535 93.8664 13.7222 93.6968 15.2909L93.2651 20.1854C93.0185 23.464 92.741 26.2092 92.3401 29.4408C92.1706 31.0095 92.0318 32.6881 91.7389 34.3038C91.7389 34.7745 91.7389 35.4961 91.2455 35.7785C91.0242 35.9213 90.7676 35.9975 90.5055 35.9981C90.3856 36.0068 90.2653 35.9857 90.1551 35.9365C90.045 35.8873 89.9483 35.8115 89.8734 35.7157C89.5867 35.3405 89.4151 34.8876 89.3801 34.4137C89.2116 33.7784 89.1133 33.1259 89.0872 32.4684C89.0431 31.7325 88.9607 30.9994 88.8405 30.2722C88.7326 29.4408 88.7018 28.7035 88.6247 27.7937C88.3472 24.4836 88.0697 21.6756 87.7768 18.3813C87.638 16.9695 87.1138 15.7145 87.0368 14.3026C87.0368 13.5183 87.0368 12.7339 87.0368 11.9653C87.0368 11.1966 86.8209 10.3965 86.7438 9.54942C86.6668 8.70231 86.6051 8.07482 86.5743 7.35321C86.5434 6.63159 86.3584 5.78449 86.2505 5.01581C86.1426 4.24714 85.973 3.65102 85.8343 2.92941C85.8014 2.5817 85.7499 2.23607 85.6801 1.89406C85.3976 1.90885 85.1146 1.90885 84.8322 1.89406C84.0613 1.89406 83.568 1.36069 83.568 0.921449C83.568 0.482207 83.7376 0.450833 84.0922 0.309648C84.4303 0.224164 84.7767 0.176811 85.1251 0.168457C85.5876 0.168457 86.0347 0.0586469 86.4972 0.0586469C88.1622 0.0586469 87.8847 1.78425 87.9463 2.83529C88.0543 4.40401 87.9464 5.81586 88.2393 7.33752C88.5322 8.85918 88.6247 10.475 88.7943 12.0437C88.8816 12.7603 89.0259 13.4686 89.2259 14.1615C89.2969 14.6497 89.333 15.1425 89.3339 15.6361C89.3339 15.9969 89.3339 16.3577 89.3339 16.7185C89.3538 17.4445 89.4259 18.168 89.5497 18.8833C89.6576 19.5265 89.8426 22.2247 90.043 23.8875C90.043 24.1699 90.043 24.5307 90.1972 24.8601C90.3514 25.1896 90.3359 25.5504 90.3668 25.9112C90.4081 26.8556 90.5267 27.7949 90.7214 28.7192L90.7522 29.0957Z" fill="#11827E"/>
<path d="M110 35.0572C110 35.5698 109.503 35.7406 109.09 35.7406C108.279 35.7406 108.097 35.2746 107.948 34.7465C107.553 33.4191 107.32 32.0538 107.253 30.677C107.154 29.4344 106.922 28.2228 106.773 26.9802C106.624 25.7376 106.425 24.6192 106.309 23.4388C106.045 21.2642 105.929 19.0586 105.482 16.9151L105.317 16.3559C105.317 16.2472 105.134 16.2472 104.936 16.2472H104.572C104.373 16.2472 102.321 16.0608 102.288 16.1074C102.288 16.4957 102.172 16.8529 102.139 17.2102C101.907 18.7634 101.676 20.1924 101.411 21.7302C101.113 23.9047 100.766 26.0793 100.418 28.2539C100.269 29.1082 100.153 29.9625 100.037 30.8168C100.037 31.3915 99.8553 31.9662 99.7726 32.5409C99.6975 33.2597 99.5591 33.9715 99.3588 34.6689C99.2099 35.2125 99.243 35.7717 98.5645 35.9581C97.886 36.1445 97.5384 35.6785 97.3895 35.1659C97.3096 34.9621 97.2703 34.7462 97.2736 34.5291C97.2736 34.3893 97.2736 34.2806 97.2736 34.1408C97.2736 34.001 97.4722 33.4263 97.4722 33.0379C97.6587 32.3937 97.7696 31.7322 97.8032 31.0653C98.1838 28.8286 98.5645 26.5764 98.9782 24.3397C99.5243 21.5904 100.004 18.8411 100.55 16.1074C100.231 16.1255 99.9102 16.1255 99.5905 16.1074C98.9451 16.1074 98.2997 15.9676 98.2997 15.2841C98.2931 15.0815 98.3635 14.8833 98.4983 14.7249C98.6417 14.5852 98.8187 14.4798 99.0146 14.4176C99.2104 14.3554 99.4193 14.3383 99.6236 14.3677C99.9711 14.3677 100.352 14.3677 100.617 14.3677C100.881 14.3677 100.881 14.1968 100.931 13.8707C101.08 13.2028 101.146 12.5504 101.262 11.9135C101.378 10.7641 101.461 10.0652 101.527 8.91574C101.593 7.76632 101.874 6.21306 102.056 4.89279C102.172 3.82103 102.437 2.82695 102.636 1.78626C102.023 1.64646 100.699 1.89499 100.699 0.900897C100.699 0.155329 101.874 0 102.702 0C102.967 0 103.248 0 103.397 0C103.926 0 104.539 0.108729 104.605 0.667904C104.605 0.916427 104.804 1.16494 104.837 1.41347L104.952 1.92605C105.209 3.14405 105.347 4.38136 105.366 5.62281C105.467 6.62228 105.644 7.61371 105.896 8.58955C106.045 9.33512 106.161 9.6613 106.243 10.4069C106.311 11.101 106.421 11.7907 106.574 12.4727C106.852 13.3682 107.018 14.2907 107.071 15.222C107.144 16.7863 107.338 18.3436 107.65 19.8818C107.832 21.4351 108.146 22.9883 108.444 24.5416C108.626 25.6133 108.792 26.7162 108.974 27.8345C109.156 28.9529 109.388 30.1799 109.586 31.3604C109.845 32.5461 109.972 33.7537 109.967 34.964L110 35.0572ZM104.837 14.3832C104.721 12.9232 104.489 9.72344 104.224 8.17018C104.075 7.36248 104.026 6.6169 103.926 5.79367C103.848 5.39294 103.793 4.98849 103.761 4.58213C103.314 7.28481 103 11.8048 102.52 14.492C103.314 14.492 104.837 14.3366 104.837 14.3366V14.3832Z" fill="#11827E"/>
</svg>
