<svg width="24" height="24" viewBox="0 0 24 24" fill="none" xmlns="http://www.w3.org/2000/svg">
<path d="M21.7799 5.81861C18.3394 0.499824 11.315 -1.08144 5.86752 2.22484C0.563382 5.53111 -1.15688 12.7187 2.28364 18.0375L2.57035 18.4687L1.42351 22.7812L5.72416 21.6312L6.15423 21.9187C8.01784 22.925 10.0248 23.5 12.0318 23.5C14.1821 23.5 16.3324 22.925 18.196 21.775C23.5002 18.325 25.0771 11.2812 21.7799 5.81861V5.81861ZM18.7695 16.8874C18.196 17.75 17.4793 18.325 16.4758 18.4687C15.9024 18.4687 15.1856 18.7562 12.3185 17.6062C9.88145 16.4562 7.87448 14.5874 6.44094 12.4312C5.58081 11.4249 5.15074 10.1311 5.00739 8.83739C5.00739 7.68738 5.43745 6.68112 6.15423 5.96237C6.44094 5.67486 6.72765 5.53111 7.01436 5.53111H7.73113C8.01784 5.53111 8.30455 5.53111 8.4479 6.10612C8.73461 6.82487 9.45139 8.54989 9.45139 8.69364C9.59474 8.83739 9.59474 9.12489 9.45139 9.26864C9.59474 9.55614 9.45139 9.84365 9.30804 9.9874C9.16468 10.1311 9.02133 10.4187 8.87797 10.5624C8.59126 10.7062 8.4479 10.9937 8.59126 11.2812C9.16468 12.1437 9.88145 13.0062 10.5982 13.7249C11.4584 14.4437 12.3185 15.0187 13.322 15.4499C13.6087 15.5937 13.8954 15.5937 14.0387 15.3062C14.1821 15.0187 14.8989 14.2999 15.1856 14.0124C15.4723 13.7249 15.6157 13.7249 15.9024 13.8687L18.196 15.0187C18.4828 15.1624 18.7695 15.3062 18.9128 15.4499C19.0562 15.8812 19.0562 16.4562 18.7695 16.8874V16.8874Z" fill="#11827E"/>
</svg>
