<svg width="73" height="72" viewBox="0 0 73 72" fill="none" xmlns="http://www.w3.org/2000/svg">
<g filter="url(#filter0_d_5_77)">
<path d="M63.3769 14.7995C53.7768 -0.000489235 34.1769 -4.40049 18.9769 4.79951C4.17685 13.9995 -0.623147 33.9995 8.97685 48.7995L9.77685 49.9995L6.57685 61.9995L18.5769 58.7995L19.7769 59.5995C24.9769 62.3995 30.5769 63.9995 36.1769 63.9995C42.1769 63.9995 48.1769 62.3995 53.3769 59.1995C68.1769 49.5995 72.5769 29.9995 63.3769 14.7995ZM54.9769 45.5995C53.3769 47.9995 51.3769 49.5995 48.5769 49.9995C46.9769 49.9995 44.9769 50.7995 36.9769 47.5995C30.1769 44.3995 24.5769 39.1995 20.5769 33.1995C18.1769 30.3995 16.9769 26.7995 16.5769 23.1995C16.5769 19.9995 17.7769 17.1995 19.7769 15.1995C20.5769 14.3995 21.3769 13.9995 22.1769 13.9995H24.1769C24.9769 13.9995 25.7769 13.9995 26.1769 15.5995C26.9769 17.5995 28.9769 22.3995 28.9769 22.7995C29.3769 23.1995 29.3769 23.9995 28.9769 24.3995C29.3769 25.1995 28.9769 25.9995 28.5769 26.3995C28.1769 26.7995 27.7769 27.5995 27.3769 27.9995C26.5769 28.3995 26.1769 29.1995 26.5769 29.9995C28.1769 32.3995 30.1769 34.7995 32.1769 36.7995C34.5769 38.7995 36.9769 40.3995 39.7769 41.5995C40.5769 41.9995 41.3769 41.9995 41.7769 41.1995C42.1769 40.3995 44.1769 38.3995 44.9769 37.5995C45.7769 36.7995 46.1769 36.7995 46.9769 37.1995L53.3769 40.3995C54.1769 40.7995 54.9769 41.1995 55.3769 41.5995C55.7769 42.7995 55.7769 44.3995 54.9769 45.5995Z" fill="#11827E"/>
</g>
<defs>
<filter id="filter0_d_5_77" x="0" y="0" width="72.1764" height="71.9995" filterUnits="userSpaceOnUse" color-interpolation-filters="sRGB">
<feFlood flood-opacity="0" result="BackgroundImageFix"/>
<feColorMatrix in="SourceAlpha" type="matrix" values="0 0 0 0 0 0 0 0 0 0 0 0 0 0 0 0 0 0 127 0" result="hardAlpha"/>
<feOffset dy="4"/>
<feGaussianBlur stdDeviation="2"/>
<feComposite in2="hardAlpha" operator="out"/>
<feColorMatrix type="matrix" values="0 0 0 0 0 0 0 0 0 0 0 0 0 0 0 0 0 0 0.25 0"/>
<feBlend mode="normal" in2="BackgroundImageFix" result="effect1_dropShadow_5_77"/>
<feBlend mode="normal" in="SourceGraphic" in2="effect1_dropShadow_5_77" result="shape"/>
</filter>
</defs>
</svg>
